<svg xmlns="http://www.w3.org/2000/svg" viewBox="0 0 24 24"><defs><linearGradient id="s" x1="0" y1="0" x2="1" y2="1"><stop offset="0" stop-color="#FF9E6B"/><stop offset="0.52" stop-color="#6FE7CC"/><stop offset="1" stop-color="#B79CFF"/></linearGradient><linearGradient id="f" x1="0" y1="0" x2="1" y2="1"><stop offset="0" stop-color="#2A1A14"/><stop offset="0.52" stop-color="#0F2622"/><stop offset="1" stop-color="#1E1830"/></linearGradient><filter id="sh" x="-40%" y="-40%" width="180%" height="180%"><feDropShadow dx="0" dy="0.6" stdDeviation="0.5" flood-color="#000" flood-opacity="0.65"/></filter></defs><path d="M12 2.2 20.4 7v10L12 21.8 3.6 17V7Z" fill="url(#f)" stroke="url(#s)" stroke-width="1.4" stroke-linejoin="round"/><svg x="6.75" y="6.75" width="10.5" height="10.5" viewBox="197.5 463.4 173.4 173.6" overflow="visible"><path fill="#F6F8FC" fill-rule="evenodd" filter="url(#sh)" d="M242.899,470.737c0.938,16.394,3.372,31.291,12.999,38.996 c30.201,3.941,50.499-8.114,69.991-18.998c12.6-7.034,24.428-17.125,38.996-18.998c-1.98,8.572-10.843,17.596-16.302,26.471 c-11.576,22.42-27.735,40.479-36.692,65.519c-5.526,35.522,24.531,35.46,48.994,40.994c-2.223,11.442-15.552,12.28-26.996,13.999 c-16.146,2.185-30.941,5.854-44.995,9.998c-10.363,2.021-15.621,2.377-24.997,2c1.573-13.759,20.674-9.989,26.997-18.998 c-6.987-9.064-18.147-9.74-19.998-22.997c-2.064-14.788,7.391-28.337,10.999-40.994c-18.209-1.138-41.606,3.464-48.994-13.999 c-2.202-5.204-0.98-11.04-2-17.997c-11.168,2.496-11.154,16.176-20.997,19.997c-6.429-7.87,2.919-20.239,3-21.997 c9.419-12.911,14.302-30.359,24.997-41.995c0.247-1.086,1.235-1.258,2-1.999C241.01,470.011,242.729,469.448,242.899,470.737z"/></svg></svg>
